<?xml version="1.0" standalone="no"?>
<svg xmlns="http://www.w3.org/2000/svg" viewBox="0 0 118 69" width="118" height="69"><g fill="#048be8" color="#048be8" transform="translate(36.645 0) scale(0.4583334) "><svg width="96.0" height="96.0" x="0.0" y="0.0" viewBox="0 0 96 96"><path d="M44,33h2a4,4,0,0,0-8,0h2a2,2,0,0,1,4,0Z"></path><path d="M56,29a4.00458,4.00458,0,0,0-4,4h2a2,2,0,0,1,4,0h2A4.00458,4.00458,0,0,0,56,29Z"></path><path d="M31,26h2v9a15.99309,15.99309,0,0,0,7,13.21838V55H31.22021A11.98268,11.98268,0,0,0,19,67V81h2V67A10.00435,10.00435,0,0,1,31.22021,57H41a1,1,0,0,0,1-1V49.36517a15.80394,15.80394,0,0,0,14,.00006V56a1,1,0,0,0,1,1h9.77979A10.00435,10.00435,0,0,1,77,67h2A11.98268,11.98268,0,0,0,66.77979,55H58V48.21838a16.11292,16.11292,0,0,0,5.10876-5.68682A10.93325,10.93325,0,0,0,73.92529,52H75a1,1,0,0,0,1-1V22.92529A10.93743,10.93743,0,0,0,65.07471,12H63.04938C59.75934,8.78943,54.95721,7,49,7,37.28027,7,30,13.897,30,25A1,1,0,0,0,31,26ZM49,49A14.01572,14.01572,0,0,1,35,35V26H63v9A14.01572,14.01572,0,0,1,49,49ZM65.07471,14A8.93545,8.93545,0,0,1,74,22.92529V50h-.07471A8.93545,8.93545,0,0,1,65,41.07471V26h2a1,1,0,0,0,1-1,18.48762,18.48762,0,0,0-3.24152-11ZM49,9c10.28564,0,16.56592,5.585,16.97852,15H62V19H60v5H54V19H52v5H46V19H44v5H38V19H36v5H32.02148C32.43408,14.585,38.71436,9,49,9Z"></path><path d="M49,42a4.01016,4.01016,0,0,1-3.91992-3.19922l-1.96.39844a6.00116,6.00116,0,0,0,11.75976,0l-1.96-.39844A4.01016,4.01016,0,0,1,49,42Z"></path><path d="M40,74h5.78711l9.84912,9.84912a.99963.99963,0,0,0,1.41406,0L66.89941,74H73V72H68.31934a6.997,6.997,0,0,0-11.269-7.94971l-.707.707-.70752-.707A6.99562,6.99562,0,0,0,44.36719,72H40Zm16.34326,7.728L48.61523,74H52a.99985.99985,0,0,0,.89453-.55273l1.16406-2.32862,3.07325,5.37744a1.00079,1.00079,0,0,0,.834.50342L58,77a1.00034,1.00034,0,0,0,.832-.44531L60.53516,74h3.53613ZM47.15088,65.46436a4.99993,4.99993,0,0,1,7.0708,0l1.41455,1.41406a.99964.99964,0,0,0,1.41406,0l1.41407-1.41406A4.98837,4.98837,0,0,1,65.97284,72H60a.99963.99963,0,0,0-.832.44531l-1.10254,1.65381-3.19727-5.59521a.96107.96107,0,0,0-.896-.50342,1.00056,1.00056,0,0,0-.8667.55224L51.38184,72H46.71368A4.99241,4.99241,0,0,1,47.15088,65.46436Z"></path><path d="M13,24A11,11,0,1,0,2,13,11.01245,11.01245,0,0,0,13,24ZM13,4a9,9,0,1,1-9,9A9.01047,9.01047,0,0,1,13,4Z"></path><polygon points="12 19 14 19 14 14 19 14 19 12 14 12 14 7 12 7 12 12 7 12 7 14 12 14 12 19"></polygon><path d="M16,36a9,9,0,1,0,9,9A9.01047,9.01047,0,0,0,16,36Zm0,16a7,7,0,1,1,7-7A7.00787,7.00787,0,0,1,16,52Z"></path><polygon points="17 40 15 40 15 44 11 44 11 46 15 46 15 50 17 50 17 46 21 46 21 44 17 44 17 40"></polygon><path d="M87,52a7,7,0,1,0-7-7A7.00787,7.00787,0,0,0,87,52Zm0-12a5,5,0,1,1-5,5A5.00588,5.00588,0,0,1,87,40Z"></path><polygon points="86 48 88 48 88 46 90 46 90 44 88 44 88 42 86 42 86 44 84 44 84 46 86 46 86 48"></polygon><path d="M85,20a9,9,0,1,0-9-9A9.01047,9.01047,0,0,0,85,20ZM85,4a7,7,0,1,1-7,7A7.00787,7.00787,0,0,1,85,4Z"></path><polygon points="84 16 86 16 86 12 90 12 90 10 86 10 86 6 84 6 84 10 80 10 80 12 84 12 84 16"></polygon><path d="M3,91H6v2a1,1,0,0,0,1,1h4a1,1,0,0,0,1-1V89H25v4a1,1,0,0,0,1,1h4a1,1,0,0,0,1-1V91h3a1,1,0,0,0,1-1V82a1,1,0,0,0-1-1H31V79a1,1,0,0,0-1-1H26a1,1,0,0,0-1,1v4H12V79a1,1,0,0,0-1-1H7a1,1,0,0,0-1,1v2H3a1,1,0,0,0-1,1v8A1,1,0,0,0,3,91Zm30-8v6H31V83Zm-6-3h2V92H27V80Zm-2,5v2H12V85ZM8,80h2V92H8V80ZM4,83H6v6H4Z"></path><path d="M92.62891,78.75049a7.1721,7.1721,0,0,0-4.77784-3.03028,7.46923,7.46923,0,0,0-3.9649.46125c.2951-2.781,1.14856-4.92926,2.75055-8.16828l-1.793-.88672c-.20959.42389-.402.825-.58893,1.2204a6.63611,6.63611,0,0,0-.98041-.3825,5.35731,5.35731,0,0,0-3.96533.1455A2.38559,2.38559,0,0,0,78.09229,69.521c-.49415,1.63818.98388,3.4331,3.43164,4.17431a7.09665,7.09665,0,0,0,.7171.17011,18.90547,18.90547,0,0,0-.35749,2.21362,7.45615,7.45615,0,0,0-3.73461-.35883,7.1721,7.1721,0,0,0-4.77784,3.03028,7.8996,7.8996,0,0,0-1.20556,6.11035c.78906,3.92969,4.34326,9.13867,8.33545,9.13867a4.55937,4.55937,0,0,0,.73437-.05957,7.12024,7.12024,0,0,0,1.0957-.26806,2.18394,2.18394,0,0,1,1.33643-.00049,7.09027,7.09027,0,0,0,1.0957.26806c4.27637.70752,8.23389-4.90918,9.07129-9.07861A7.8996,7.8996,0,0,0,92.62891,78.75049ZM82.10986,71.7832c-1.46093-.44238-2.20215-1.35449-2.103-1.68408.03125-.10254.17968-.19043.24218-.22363a3.4239,3.4239,0,0,1,2.44873.0039,4.7375,4.7375,0,0,1,.74524.28882c-.25238.60541-.47241,1.19336-.66559,1.77375A5.14927,5.14927,0,0,1,82.10986,71.7832Zm9.76368,12.68409c-.67334,3.35595-3.81006,7.9873-6.78956,7.498a5.10838,5.10838,0,0,1-.79-.19287,4.16807,4.16807,0,0,0-2.58936.00049,5.13894,5.13894,0,0,1-.79.19287c-2.97559.48-6.11523-4.14307-6.78809-7.49853a5.91828,5.91828,0,0,1,.88917-4.57862,5.192,5.192,0,0,1,3.45556-2.19482,5.30688,5.30688,0,0,1,.85254-.06885,5.76089,5.76089,0,0,1,3.13184.95313,1.00033,1.00033,0,0,0,1.08886,0,5.64969,5.64969,0,0,1,3.98438-.88428,5.19208,5.19208,0,0,1,3.45557,2.19482A5.91832,5.91832,0,0,1,91.87354,84.46729Z"></path><rect x="73" y="92" width="2" height="2"></rect><rect x="70" y="89" width="2" height="2"></rect><rect x="67" y="92" width="2" height="2"></rect><rect x="60" y="92" width="2" height="2"></rect><rect x="56" y="90" width="2" height="2"></rect><rect x="50" y="92" width="2" height="2"></rect><rect x="66" y="86" width="2" height="2"></rect><rect x="63" y="89" width="2" height="2"></rect></svg></g><path fill="#50b356" fill-rule="nonzero" d="M6.10 10.01Q6.17 9.82 6.61 8.62Q7.06 7.42 7.44 6.79L7.44 6.79Q8.06 5.81 8.54 5.81L8.54 5.81Q9.22 5.81 9.58 6.06Q9.94 6.31 9.94 6.77L9.94 6.77Q9.94 6.98 9.76 7.37Q9.58 7.75 9.55 7.82L9.55 7.82Q8.59 9.94 7.82 12.36L7.82 12.36L7.32 14.23Q7.03 15.14 6.34 15.71Q5.64 16.27 4.70 16.27L4.70 16.27Q3.86 16.27 3.14 15.50L3.14 15.50Q2.71 14.83 2.24 13.80Q1.78 12.77 1.44 11.78L1.44 11.78L0.60 9.26Q0.34 8.52 0.18 7.99Q0.02 7.46 0.02 7.03L0.02 7.03Q0 6.53 0.31 6.22Q0.62 5.90 1.18 5.90L1.18 5.90Q1.80 5.90 2.06 6.16Q2.33 6.41 2.54 6.94L2.54 6.94Q2.64 7.49 3.07 9.19L3.07 9.19L3.24 9.86Q3.46 10.68 3.79 11.52Q4.13 12.36 4.46 13.13L4.46 13.13Q4.42 13.01 4.80 13.92L4.80 13.92Q5.04 13.22 5.35 12.22L5.35 12.22L6.10 10.01ZM12.86 0.77Q13.70 0.84 14.33 1.21Q14.95 1.58 14.95 2.33L14.95 2.33Q14.95 2.88 14.44 3.20Q13.92 3.53 13.20 3.53L13.20 3.53Q12.50 3.53 12.24 3.17Q11.98 2.81 11.98 2.42L11.98 2.42Q11.98 1.70 12.13 1.22Q12.29 0.74 12.86 0.77L12.86 0.77ZM14.78 7.08L14.78 11.40L14.78 12.10Q14.78 13.03 14.84 13.86Q14.90 14.69 15 15.53L15 15.53Q14.98 15.77 14.64 16.02Q14.30 16.27 14.04 16.27L14.04 16.27Q13.58 16.27 13.12 16.09Q12.65 15.91 12.55 15.65L12.55 15.65Q12.41 14.88 12.41 14.28L12.41 14.28Q12.41 12.31 12.29 9.86L12.29 9.86Q12.19 7.70 12.19 6.84L12.19 6.84Q12.19 6.41 12.62 6.10Q13.06 5.78 13.54 5.78L13.54 5.78Q14.23 5.78 14.51 6.10Q14.78 6.41 14.78 7.08L14.78 7.08ZM27.36 1.15Q27.36 1.39 27.24 2.47L27.24 2.47Q26.98 5.11 26.98 7.82L26.98 7.82Q26.98 10.20 27.05 11.45Q27.12 12.70 27.41 13.36Q27.70 14.02 28.30 14.02L28.30 14.02Q29.45 14.02 29.45 14.78L29.45 14.78Q29.45 15.29 28.94 15.64Q28.44 15.98 27.84 15.98L27.84 15.98Q27.12 15.98 26.50 15.65Q25.87 15.31 25.51 14.62L25.51 14.62Q25.01 15.36 24.06 15.80Q23.11 16.25 22.22 16.25L22.22 16.25Q20.86 16.25 19.80 15.67Q18.74 15.10 18.17 14.10Q17.59 13.10 17.59 11.90L17.59 11.90Q17.59 10.75 17.87 9.68Q18.14 8.62 18.62 7.92L18.62 7.92Q19.27 7.01 20.36 6.47Q21.46 5.93 22.51 5.93L22.51 5.93Q23.16 5.93 23.74 6.18Q24.31 6.43 24.74 6.79L24.74 6.79Q24.74 5.18 24.72 4.78L24.72 4.78L24.72 4.27Q24.72 2.04 25.01 1.01L25.01 1.01Q25.27 0 26.28 0L26.28 0Q26.83 0 27.10 0.24Q27.36 0.48 27.36 1.15L27.36 1.15ZM19.97 11.86Q19.97 12.96 20.60 13.63Q21.24 14.30 22.13 14.30L22.13 14.30Q23.40 14.30 24.01 13.51Q24.62 12.72 24.62 11.47L24.62 11.47L24.60 9.10Q23.66 8.06 22.66 8.06L22.66 8.06Q21.96 8.06 21.35 8.41Q20.74 8.76 20.38 9.46L20.38 9.46Q19.97 10.25 19.97 11.86L19.97 11.86ZM41.95 15.02Q41.95 15.55 41.39 15.91Q40.82 16.27 40.34 16.27L40.34 16.27Q39.43 16.27 38.89 16.04Q38.35 15.82 37.90 15.19L37.90 15.19Q37.27 15.74 36.19 16.02Q35.11 16.30 34.20 16.30L34.20 16.30Q32.71 16.30 31.75 15.49Q30.79 14.69 30.79 13.13L30.79 13.13Q30.79 12.46 31.15 11.89Q31.51 11.33 32.14 10.90L32.14 10.90Q32.83 10.44 33.72 10.19Q34.61 9.94 35.57 9.94L35.57 9.94Q36.07 9.94 36.77 10.13Q37.46 10.32 37.85 10.54L37.85 10.54L37.85 10.15Q37.85 8.86 37.22 8.36Q36.60 7.87 35.21 7.87L35.21 7.87Q34.80 7.87 34.40 8.04Q34.01 8.21 33.50 8.50L33.50 8.50Q32.83 8.86 32.23 8.86L32.23 8.86Q32.02 8.86 31.82 8.56Q31.63 8.26 31.63 8.02L31.63 8.02Q31.63 7.32 32.29 6.82Q32.95 6.31 33.86 6.06Q34.78 5.81 35.50 5.81L35.50 5.81Q36.22 5.81 37.15 6.08Q38.09 6.36 38.69 6.84L38.69 6.84Q39.41 7.46 39.80 8.29Q40.20 9.12 40.20 10.10L40.20 10.10Q40.20 10.42 40.15 11.04L40.15 11.04Q40.10 11.71 40.10 12.19L40.10 12.19Q40.10 12.41 40.06 12.84L40.06 12.84Q40.01 13.37 40.01 13.68L40.01 13.68Q40.01 13.97 40.22 14.17Q40.44 14.38 40.73 14.38L40.73 14.38L41.40 14.35Q41.66 14.35 41.81 14.54Q41.95 14.74 41.95 15.02L41.95 15.02ZM34.22 14.40Q35.26 14.40 35.95 14.18Q36.65 13.97 37.63 13.39L37.63 13.39Q37.73 12.98 37.75 12.31L37.75 12.31Q36.43 11.69 35.57 11.69L35.57 11.69Q34.58 11.69 33.82 12.05Q33.05 12.41 33.05 13.32L33.05 13.32Q33.05 13.78 33.43 14.09Q33.82 14.40 34.22 14.40L34.22 14.40ZM55.97 3.67Q55.63 3.67 55.32 3.50Q55.01 3.34 54.89 3.00L54.89 3.00Q54.65 2.35 54.37 2.08Q54.10 1.80 53.71 1.80L53.71 1.80Q53.47 1.80 53.27 2.16Q53.06 2.52 52.97 3.29L52.97 3.29Q52.80 4.87 52.80 5.71L52.80 5.71Q53.16 5.78 53.81 5.78L53.81 5.78Q54.14 5.78 54.67 5.74L54.67 5.74L55.32 5.71Q55.75 5.71 55.99 5.88Q56.23 6.05 56.23 6.43L56.23 6.43Q56.23 6.98 55.90 7.34Q55.56 7.70 55.10 7.70L55.10 7.70Q53.38 7.70 52.78 7.87L52.78 7.87Q52.78 9.31 52.92 12.00L52.92 12.00Q52.92 12.41 52.97 13.18L52.97 13.18L53.06 15.02Q53.11 15.72 52.93 16.00Q52.75 16.27 52.18 16.27L52.18 16.27Q51.12 16.27 50.81 15.00L50.81 15.00Q50.62 14.09 50.51 12.40Q50.40 10.70 50.40 9.41L50.40 9.41Q50.40 8.74 50.47 7.85L50.47 7.85Q50.42 7.82 50.21 7.82L50.21 7.82Q49.99 7.82 49.90 7.85L49.90 7.85Q49.18 7.90 48.84 7.90L48.84 7.90Q48.62 7.90 48.41 7.58Q48.19 7.27 48.19 6.86L48.19 6.86Q48.19 6.62 48.36 6.42Q48.53 6.22 48.77 6.12L48.77 6.12Q49.13 5.93 49.80 5.93L49.80 5.93L50.52 5.93Q50.52 2.57 51.26 1.25L51.26 1.25Q51.98 0 53.64 0L53.64 0Q54.41 0 55.12 0.31Q55.82 0.62 56.27 1.18Q56.71 1.73 56.71 2.42L56.71 2.42Q56.71 3.17 56.52 3.42Q56.33 3.67 55.97 3.67L55.97 3.67ZM59.26 0.77Q60.10 0.84 60.72 1.21Q61.34 1.58 61.34 2.33L61.34 2.33Q61.34 2.88 60.83 3.20Q60.31 3.53 59.59 3.53L59.59 3.53Q58.90 3.53 58.63 3.17Q58.37 2.81 58.37 2.42L58.37 2.42Q58.37 1.70 58.52 1.22Q58.68 0.74 59.26 0.77L59.26 0.77ZM61.18 7.08L61.18 11.40L61.18 12.10Q61.18 13.03 61.24 13.86Q61.30 14.69 61.39 15.53L61.39 15.53Q61.37 15.77 61.03 16.02Q60.70 16.27 60.43 16.27L60.43 16.27Q59.98 16.27 59.51 16.09Q59.04 15.91 58.94 15.65L58.94 15.65Q58.80 14.88 58.80 14.28L58.80 14.28Q58.80 12.31 58.68 9.86L58.68 9.86Q58.58 7.70 58.58 6.84L58.58 6.84Q58.58 6.41 59.02 6.10Q59.45 5.78 59.93 5.78L59.93 5.78Q60.62 5.78 60.90 6.10Q61.18 6.41 61.18 7.08L61.18 7.08ZM65.33 7.97L64.18 7.87Q63.84 7.82 63.64 7.58Q63.43 7.34 63.43 7.01L63.43 7.01Q63.43 6.84 63.52 6.65Q63.60 6.46 63.77 6.31L63.77 6.31Q64.08 6.00 65.45 6.00L65.45 6.00Q65.64 5.06 65.64 4.10L65.64 4.10Q65.64 3.74 65.62 3.48Q65.59 3.22 65.59 3.07L65.59 3.07Q65.59 2.54 65.99 2.28Q66.38 2.02 66.89 2.02L66.89 2.02Q67.51 2.02 67.74 2.33Q67.97 2.64 67.97 3.48L67.97 3.48Q67.97 4.73 67.75 5.93L67.75 5.93Q68.14 5.93 68.81 5.88L68.81 5.88Q69.72 5.83 70.13 5.83L70.13 5.83Q70.54 5.83 70.84 6.04Q71.14 6.24 71.14 6.60L71.14 6.60Q71.14 7.54 70.30 7.70L70.30 7.70Q69.41 7.92 67.54 7.97L67.54 7.97Q67.46 8.90 67.46 10.01L67.46 10.01Q67.46 11.74 67.68 12.84L67.68 12.84Q67.82 13.61 68.17 13.96Q68.52 14.30 69.22 14.30L69.22 14.30Q69.62 14.30 70.06 14.09L70.06 14.09Q70.34 13.92 70.58 13.92L70.58 13.92Q70.92 13.92 71.08 14.14Q71.23 14.35 71.23 14.71L71.23 14.71Q71.23 15.38 70.51 15.83Q69.79 16.27 68.66 16.27L68.66 16.27Q67.97 16.27 67.26 15.94Q66.55 15.60 66.07 15.10L66.07 15.10Q66 15.02 65.81 14.54Q65.62 14.06 65.47 13.51L65.47 13.51Q65.23 12.38 65.23 10.34L65.23 10.34Q65.23 9.46 65.33 7.97L65.33 7.97ZM84.14 14.33Q84.26 14.38 84.53 14.45Q84.79 14.52 84.91 14.59Q85.03 14.66 85.03 14.81L85.03 14.81Q85.06 15.38 84.61 15.76Q84.17 16.13 83.57 16.13L83.57 16.13Q82.63 16.13 82.10 15.62Q81.58 15.12 81.34 14.09L81.34 14.09Q81.24 13.68 81.24 12.96L81.24 12.96Q81.24 12.55 81.29 11.64L81.29 11.64Q81.34 10.68 81.34 10.10L81.34 10.10Q81.34 9.26 80.87 8.63Q80.40 7.99 79.56 7.99L79.56 7.99Q79.06 7.99 78.50 8.29Q77.95 8.59 77.74 9.02L77.74 9.02Q77.38 9.72 77.23 10.54L77.23 10.54Q76.97 11.98 76.97 13.54L76.97 13.54Q76.97 14.28 76.99 14.69L76.99 14.69Q76.99 14.78 77.00 15.06Q77.02 15.34 76.96 15.56Q76.90 15.79 76.75 15.98L76.75 15.98Q76.63 16.10 76.38 16.19Q76.13 16.27 75.91 16.27L75.91 16.27Q75.58 16.27 75.07 15.98Q74.57 15.70 74.50 15.34L74.50 15.34L74.47 14.93Q74.47 14.71 74.52 14.42L74.52 14.42Q74.81 12.74 74.81 11.50L74.81 11.50Q74.81 10.94 74.78 10.63L74.78 10.63L74.76 9.50Q74.76 8.93 74.47 8.39Q74.18 7.85 73.80 7.85L73.80 7.85Q73.68 7.85 73.46 7.93Q73.25 8.02 73.10 8.02L73.10 8.02Q72.86 8.02 72.59 7.78Q72.31 7.54 72.31 7.27L72.31 7.27Q72.31 6.77 72.65 6.46L72.65 6.46Q73.01 6.17 73.36 6.00Q73.70 5.83 74.16 5.83L74.16 5.83Q74.54 5.83 74.78 5.90Q75.02 5.98 75.43 6.22L75.43 6.22Q75.65 6.34 75.94 6.74Q76.22 7.15 76.42 7.90L76.42 7.90Q77.04 6.74 77.96 6.28Q78.89 5.81 80.33 5.81L80.33 5.81Q80.88 5.81 81.52 6.17Q82.15 6.53 82.61 7.01L82.61 7.01Q83.04 7.54 83.33 8.32Q83.62 9.10 83.62 9.72L83.62 9.72Q83.62 10.08 83.57 10.90L83.57 10.90Q83.50 11.54 83.50 12.26L83.50 12.26Q83.50 13.94 84.14 14.33L84.14 14.33ZM86.57 11.09Q86.57 10.18 86.90 9.25Q87.24 8.33 87.79 7.56L87.79 7.56Q88.34 6.79 89.54 6.30Q90.74 5.81 91.68 5.81L91.68 5.81Q92.64 5.81 93.64 6.07Q94.63 6.34 95.02 6.89L95.02 6.89Q95.90 8.14 95.90 9.34L95.90 9.34Q95.90 9.98 95.63 10.44Q95.35 10.90 94.85 11.42L94.85 11.42Q94.44 11.86 93.56 12.00Q92.69 12.14 91.82 12.14L91.82 12.14Q91.27 12.14 90.48 12.04Q89.69 11.93 88.94 11.76L88.94 11.76Q88.99 12.24 89.18 12.70Q89.38 13.15 89.64 13.39L89.64 13.39Q90.12 13.85 90.64 13.97Q91.15 14.09 91.97 14.09L91.97 14.09Q92.83 14.09 93.58 13.80L93.58 13.80Q94.18 13.58 94.56 13.58L94.56 13.58Q95.02 13.58 95.26 13.86Q95.50 14.14 95.50 14.57L95.50 14.57Q95.50 15.17 94.80 15.55Q94.10 15.94 93.20 16.12Q92.30 16.30 91.75 16.30L91.75 16.30Q90.62 16.30 89.57 15.89Q88.51 15.48 87.82 14.74L87.82 14.74Q87.24 14.06 86.90 13.12Q86.57 12.17 86.57 11.09L86.57 11.09ZM91.80 7.85Q91.27 7.85 90.74 8.05Q90.22 8.26 89.88 8.62L89.88 8.62Q89.45 9.07 89.29 9.35Q89.14 9.62 89.09 10.10L89.09 10.10Q89.69 10.30 91.58 10.30L91.58 10.30Q92.62 10.30 93.18 9.98Q93.74 9.67 93.74 9.17L93.74 9.17Q93.74 8.66 93.12 8.26Q92.50 7.85 91.80 7.85L91.80 7.85ZM104.93 10.78Q105.12 10.90 105.68 11.22Q106.25 11.54 106.44 11.98Q106.63 12.41 106.63 13.18L106.63 13.18Q106.63 14.04 106.13 14.70Q105.62 15.36 104.83 15.72L104.83 15.72Q104.26 15.98 103.43 16.13Q102.60 16.27 102.12 16.27L102.12 16.27Q101.64 16.27 100.88 16.13Q100.13 15.98 99.84 15.86L99.84 15.86Q99.10 15.43 98.56 14.81Q98.02 14.18 98.02 13.54L98.02 13.54Q98.02 13.06 98.33 12.78Q98.64 12.50 99.14 12.50L99.14 12.50Q99.38 12.50 99.65 12.68Q99.91 12.86 100.01 13.06L100.01 13.06Q100.27 13.68 100.90 13.99Q101.52 14.30 102.17 14.30L102.17 14.30Q103.01 14.30 103.73 14.03Q104.45 13.75 104.45 13.27L104.45 13.27Q104.45 13.06 104.34 12.92Q104.23 12.79 104.04 12.65L104.04 12.65Q103.70 12.41 103.03 12.25Q102.36 12.10 102.17 12.05L102.17 12.05Q101.18 11.83 100.25 11.40L100.25 11.40Q99.31 10.94 98.76 10.32Q98.21 9.70 98.21 8.71L98.21 8.71Q98.21 8.06 98.69 7.36Q99.17 6.65 99.77 6.36L99.77 6.36Q100.20 6.19 101.22 6.00Q102.24 5.81 102.60 5.81L102.60 5.81Q103.15 5.81 103.80 5.92Q104.45 6.02 104.78 6.26L104.78 6.26Q105.43 6.65 105.84 7.07Q106.25 7.49 106.25 8.02L106.25 8.02Q106.25 8.28 106.13 8.58Q106.01 8.88 105.84 8.95L105.84 8.95Q105.48 9.12 105 9.12L105 9.12Q104.78 9.12 104.65 9.00Q104.52 8.88 104.30 8.62L104.30 8.62Q104.04 8.21 103.80 8.14L103.80 8.14Q103.51 8.06 102.96 7.96Q102.41 7.85 102.22 7.85L102.22 7.85Q101.66 7.85 101.08 8.16Q100.49 8.47 100.49 8.88L100.49 8.88Q100.49 9.10 100.67 9.22Q100.85 9.34 101.05 9.43Q101.26 9.53 101.33 9.55L101.33 9.55Q101.83 9.79 102.44 9.96Q103.06 10.13 103.20 10.18L103.20 10.18Q104.50 10.49 104.93 10.78L104.93 10.78ZM115.61 10.78Q115.80 10.90 116.36 11.22Q116.93 11.54 117.12 11.98Q117.31 12.41 117.31 13.18L117.31 13.18Q117.31 14.04 116.81 14.70Q116.30 15.36 115.51 15.72L115.51 15.72Q114.94 15.98 114.11 16.13Q113.28 16.27 112.80 16.27L112.80 16.27Q112.32 16.27 111.56 16.13Q110.81 15.98 110.52 15.86L110.52 15.86Q109.78 15.43 109.24 14.81Q108.70 14.18 108.70 13.54L108.70 13.54Q108.70 13.06 109.01 12.78Q109.32 12.50 109.82 12.50L109.82 12.50Q110.06 12.50 110.33 12.68Q110.59 12.86 110.69 13.06L110.69 13.06Q110.95 13.68 111.58 13.99Q112.20 14.30 112.85 14.30L112.85 14.30Q113.69 14.30 114.41 14.03Q115.13 13.75 115.13 13.27L115.13 13.27Q115.13 13.06 115.02 12.92Q114.91 12.79 114.72 12.65L114.72 12.65Q114.38 12.41 113.71 12.25Q113.04 12.10 112.85 12.05L112.85 12.05Q111.86 11.83 110.93 11.40L110.93 11.40Q109.99 10.94 109.44 10.32Q108.89 9.70 108.89 8.71L108.89 8.71Q108.89 8.06 109.37 7.36Q109.85 6.65 110.45 6.36L110.45 6.36Q110.88 6.19 111.90 6.00Q112.92 5.81 113.28 5.81L113.28 5.81Q113.83 5.81 114.48 5.92Q115.13 6.02 115.46 6.26L115.46 6.26Q116.11 6.65 116.52 7.07Q116.93 7.49 116.93 8.02L116.93 8.02Q116.93 8.28 116.81 8.58Q116.69 8.88 116.52 8.95L116.52 8.95Q116.16 9.12 115.68 9.12L115.68 9.12Q115.46 9.12 115.33 9.00Q115.20 8.88 114.98 8.62L114.98 8.62Q114.72 8.21 114.48 8.14L114.48 8.14Q114.19 8.06 113.64 7.96Q113.09 7.85 112.90 7.85L112.90 7.85Q112.34 7.85 111.76 8.16Q111.17 8.47 111.17 8.88L111.17 8.88Q111.17 9.10 111.35 9.22Q111.53 9.34 111.73 9.43Q111.94 9.53 112.01 9.55L112.01 9.55Q112.51 9.79 113.12 9.96Q113.74 10.13 113.88 10.18L113.88 10.18Q115.18 10.49 115.61 10.78L115.61 10.78Z" transform="translate(0, 52)"></path></svg>